<svg width="610" height="973" viewBox="0 0 610 973" fill="none" xmlns="http://www.w3.org/2000/svg">
<path d="M65.0849 973H6.52156C1.80743 932.639 2.99991 891.665 10.1819 851.386H15.0387C25.1209 894.556 42.0809 935.593 65.0849 973Z" fill="#D9D9D9"/>
<path fill-rule="evenodd" clip-rule="evenodd" d="M415.696 0L610 194.775V364.226L582.849 337.079L170.027 749.829C180.958 765.982 193.282 781.147 206.857 795.151L214.142 802.03L248.139 835.616L610 470.972V648.118L334.751 923.022L384.737 973H214.467L129.554 888.222H129.15L121.46 880.533C43.6823 802.619 0 697.036 0 586.955C0 476.874 43.6823 371.29 121.46 293.376L415.696 0ZM415.292 169.956L206.048 375.926C178.621 403.246 156.882 435.73 142.085 471.5C127.289 507.269 119.728 545.616 119.841 584.324C119.774 597.851 120.586 611.368 122.269 624.79L496.237 250.887L415.292 169.956Z" fill="#D9D9D9"/>
<path d="M446.595 973H610V809.306L446.595 973Z" fill="#D9D9D9"/>
</svg>
