<svg width="201" height="45" viewBox="0 0 201 45" fill="none" xmlns="http://www.w3.org/2000/svg">
<path fill-rule="evenodd" clip-rule="evenodd" d="M3.68797 26.2504L11.8565 34.4074L20.1287 26.1122L20.6241 25.6052C22.5634 23.4452 23.6428 20.6487 23.6577 17.7458C23.6726 14.843 22.6219 12.0356 20.7048 9.85578L11.8334 0.961426L3.45754 9.31428C1.24349 11.5326 0 14.5387 0 17.6729C0 20.8071 1.24349 23.8132 3.45754 26.0315L3.67645 26.2504H3.68797ZM5.88851 11.7453L11.8219 5.80032L14.1262 8.10456L3.48059 18.7501C3.43266 18.368 3.40957 17.9831 3.41146 17.598C3.40825 16.4959 3.62347 15.4041 4.04468 14.3857C4.46589 13.3673 5.08474 12.4425 5.86547 11.6646L5.88851 11.7453ZM7.06368 24.7527L18.7696 12.9547C18.4742 12.5038 18.1302 12.0866 17.7438 11.7107L16.5917 10.5586L4.84009 22.3102C5.15125 22.7701 5.50206 23.2018 5.88851 23.6006L6.0959 23.7964L7.06368 24.7527ZM17.7669 23.6006L11.8334 29.5455L9.52921 27.2412L20.1863 16.5957C20.3457 17.8705 20.2104 19.165 19.791 20.3794C19.3715 21.5938 18.6791 22.6958 17.7669 23.6006Z" fill="#FAFAFA"/>
<path fill-rule="evenodd" clip-rule="evenodd" d="M51.2127 12.0444C50.4903 13.116 50.1383 14.3946 50.2104 15.6851L50.2565 15.6505C50.2565 18.646 51.4777 19.7981 53.229 19.7981C53.6387 19.8036 54.045 19.7222 54.4211 19.5594C54.7972 19.3966 55.1345 19.156 55.4109 18.8534C55.6873 18.5509 55.8966 18.1932 56.0249 17.804C56.1532 17.4148 56.1977 17.0029 56.1553 16.5952C56.1553 14.9477 55.3604 13.6343 53.517 13.6343C52.8676 13.652 52.2333 13.8344 51.6736 14.1643C51.7281 13.7139 51.8815 13.2811 52.1229 12.8969C52.4907 12.3759 53.085 12.2172 54.9102 11.73C55.1432 11.6678 55.3962 11.6003 55.6714 11.5259V10.2471C55.3491 10.3317 55.052 10.4083 54.7774 10.4791C52.6959 11.0159 51.9049 11.2199 51.2127 12.0444ZM53.2866 14.7403C54.4041 14.7403 54.7382 15.6735 54.7382 16.6874H54.7497C54.7497 17.7934 54.2198 18.6921 53.2174 18.6921C52.2151 18.6921 51.616 17.7704 51.616 15.7542V15.2473C52.1217 14.9414 52.6961 14.7671 53.2866 14.7403Z" fill="#FAFAFA"/>
<path d="M36.293 10.8694H37.6986V14.7059H37.7216L40.8438 10.8694H42.4914L38.9083 15.1668L42.6872 19.66H40.9821L37.7216 15.7544H37.6986V19.66H36.293V10.8694Z" fill="#FAFAFA"/>
<path d="M47.1458 19.9483C46.2241 22.483 45.2103 22.8171 44.1042 22.8171C43.6488 22.824 43.1971 22.7336 42.7793 22.5521L43.1249 21.4C43.41 21.5475 43.7256 21.6264 44.0466 21.6304C44.7955 21.6304 45.3946 21.1235 45.89 19.6027L43.0673 13.3467H44.5536L46.5237 17.9552L48.079 13.3467H49.5307L47.1458 19.9483Z" fill="#FAFAFA"/>
<path fill-rule="evenodd" clip-rule="evenodd" d="M61.0867 18.9918C60.5991 19.4851 59.9369 19.7666 59.2433 19.7752C58.9791 19.7909 58.7144 19.7525 58.4655 19.6624C58.2166 19.5723 57.9886 19.4324 57.7956 19.2513C57.6026 19.0701 57.4485 18.8515 57.3429 18.6088C57.2372 18.3661 57.1821 18.1044 57.181 17.8397C57.1672 17.4806 57.2607 17.1256 57.4494 16.8198C57.6382 16.5141 57.9138 16.2715 58.241 16.123C58.7495 15.9019 59.2994 15.7919 59.8539 15.8004H61.0061V15.5354C61.0061 14.7059 60.4876 14.3833 59.7387 14.3833C59.1493 14.3857 58.5716 14.5491 58.0682 14.8557L57.5843 13.934C58.2924 13.4973 59.103 13.2549 59.9346 13.2312C61.5015 13.2312 62.3771 13.957 62.3771 15.5354V17.8397C62.3477 18.4374 62.3863 19.0365 62.4923 19.6255H61.2941L61.0867 18.9918ZM60.0383 16.6876C59.689 16.6789 59.3423 16.7498 59.0244 16.8949C58.884 16.9757 58.7687 17.0939 58.6914 17.2362C58.6141 17.3786 58.5778 17.5397 58.5866 17.7014C58.581 17.835 58.6041 17.9682 58.6545 18.0921C58.7048 18.2159 58.7812 18.3275 58.8785 18.4193C58.9757 18.5111 59.0915 18.5809 59.2181 18.624C59.3446 18.6671 59.479 18.6825 59.612 18.6692C60.1279 18.6482 60.6171 18.4344 60.983 18.0701V16.6876H60.0383Z" fill="#FAFAFA"/>
<path d="M65.4068 13.3467H64.0127V19.6603H65.4068V16.9067H68.0797V19.6603H69.4622V13.3467H68.0797V15.697H65.4068V13.3467Z" fill="#FAFAFA"/>
<path d="M70.7992 16.5495C70.7867 16.1142 70.8624 15.681 71.0219 15.2758C71.1813 14.8706 71.4211 14.5019 71.7268 14.1919C72.0325 13.8818 72.3979 13.6369 72.8008 13.4718C73.2037 13.3068 73.6358 13.225 74.0712 13.2314C74.6546 13.2224 75.2303 13.3653 75.7418 13.6461V14.7982C75.2803 14.5084 74.7425 14.3639 74.1979 14.3835C73.9202 14.3836 73.6457 14.442 73.3921 14.555C73.1384 14.668 72.9114 14.8331 72.7256 15.0395C72.5399 15.2459 72.3996 15.489 72.3138 15.7531C72.228 16.0172 72.1987 16.2964 72.2278 16.5725C72.2278 17.9435 72.9767 18.7154 74.1173 18.7154C74.646 18.7124 75.1639 18.565 75.615 18.2892L76.0183 19.2454C75.4006 19.6197 74.6896 19.8114 73.9675 19.7984C73.5414 19.816 73.1163 19.743 72.7204 19.5844C72.3245 19.4257 71.9668 19.185 71.6707 18.878C71.3746 18.571 71.1469 18.2048 71.0026 17.8034C70.8584 17.4021 70.8008 16.9747 70.8337 16.5495H70.7992Z" fill="#FAFAFA"/>
<path d="M78.4488 13.3467H77.0547V19.6488H78.4257V16.9644H79.428C79.6124 16.9644 79.7967 17.1372 80.0156 17.598L80.8797 19.6488H82.4236L81.2714 17.2639C81.0525 16.8146 80.8567 16.5611 80.5226 16.4574C80.8862 16.2435 81.038 15.778 81.1802 15.3424C81.2677 15.0741 81.3515 14.8171 81.4788 14.6371C81.531 14.5648 81.6006 14.5068 81.6812 14.4685C81.7617 14.4303 81.8506 14.4129 81.9397 14.4182C82.0504 14.4019 82.163 14.4019 82.2738 14.4182V13.2661C82.083 13.2104 81.885 13.1832 81.6862 13.1854C81.46 13.1684 81.2335 13.213 81.0307 13.3145C80.8278 13.4159 80.6562 13.5704 80.5341 13.7615C80.3465 14.0408 80.2298 14.3985 80.118 14.7413C79.9207 15.346 79.7385 15.9044 79.2092 15.9044H78.4488V13.3467Z" fill="#FAFAFA"/>
<path d="M83.4951 13.3467H84.8546V17.7478C85.0505 17.4137 85.327 16.9759 85.7072 16.4344L87.7925 13.3467H89.129V19.6603H87.7925V15.2592C87.6082 15.5703 87.3202 16.0311 86.9515 16.5726L84.8085 19.6603H83.4951V13.3467Z" fill="#FAFAFA"/>
<path d="M92.7235 10.2935H91.5598C91.5598 10.8679 91.788 11.4188 92.1942 11.825C92.6004 12.2312 93.1514 12.4594 93.7258 12.4594C94.3003 12.4594 94.8512 12.2312 95.2574 11.825C95.6636 11.4188 95.8918 10.8679 95.8918 10.2935H94.7397C94.7397 10.9271 94.4977 11.4456 93.7373 11.4456C92.9769 11.4456 92.7235 10.8926 92.7235 10.2935Z" fill="#FAFAFA"/>
<path d="M92.1935 13.3466H90.834L90.8455 19.6602H92.182L94.3249 16.5725C94.7051 16.031 94.9816 15.5702 95.166 15.2591C95.1401 15.7004 95.1401 16.1428 95.166 16.584V19.6602H96.5255V13.3466H95.2005L93.0461 16.4342C92.6774 16.9757 92.3893 17.4135 92.1935 17.7477V13.3466Z" fill="#FAFAFA"/>
<path d="M101.135 13.3467H105.57L105.156 14.5794H102.529V19.6603H101.135V13.3467Z" fill="#FAFAFA"/>
<path fill-rule="evenodd" clip-rule="evenodd" d="M106.426 15.2193C106.288 15.6244 106.236 16.0538 106.273 16.4801C106.236 16.9065 106.288 17.3359 106.426 17.741C106.564 18.1461 106.785 18.5182 107.074 18.8336C107.363 19.149 107.715 19.4008 108.106 19.5731C108.498 19.7453 108.921 19.8343 109.349 19.8343C109.777 19.8343 110.201 19.7453 110.592 19.5731C110.984 19.4008 111.336 19.149 111.625 18.8336C111.914 18.5182 112.135 18.1461 112.273 17.741C112.41 17.3359 112.462 16.9065 112.426 16.4801C112.462 16.0538 112.41 15.6244 112.273 15.2193C112.135 14.8141 111.914 14.4421 111.625 14.1267C111.336 13.8113 110.984 13.5595 110.592 13.3872C110.201 13.2149 109.777 13.126 109.349 13.126C108.921 13.126 108.498 13.2149 108.106 13.3872C107.715 13.5595 107.363 13.8113 107.074 14.1267C106.785 14.4421 106.564 14.8141 106.426 15.2193ZM109.361 14.3257C110.409 14.3257 110.997 15.2243 110.997 16.4801C110.997 17.7475 110.421 18.6576 109.361 18.6576C108.301 18.6576 107.702 17.7359 107.702 16.4801C107.702 15.2243 108.312 14.3257 109.361 14.3257Z" fill="#FAFAFA"/>
<path d="M113.451 16.5491C113.439 16.1139 113.515 15.6806 113.674 15.2754C113.834 14.8703 114.073 14.5016 114.379 14.1915C114.685 13.8815 115.05 13.6366 115.453 13.4715C115.856 13.3064 116.288 13.2246 116.723 13.231C117.307 13.2205 117.883 13.3635 118.394 13.6458V14.7979C117.942 14.4914 117.408 14.3306 116.862 14.337C116.584 14.3353 116.308 14.3925 116.054 14.505C115.799 14.6174 115.571 14.7824 115.385 14.9892C115.199 15.196 115.059 15.4399 114.974 15.7048C114.889 15.9697 114.861 16.2496 114.892 16.5261C114.892 17.8971 115.629 18.669 116.781 18.669C117.309 18.6631 117.827 18.5159 118.279 18.2427L118.671 19.199C118.054 19.602 117.333 19.8144 116.597 19.8096C116.17 19.827 115.745 19.754 115.348 19.5955C114.952 19.4369 114.593 19.1964 114.296 18.8896C113.999 18.5828 113.771 18.2168 113.625 17.8154C113.479 17.4141 113.42 16.9865 113.451 16.5606V16.5491Z" fill="#FAFAFA"/>
<path d="M120.051 22.817C121.158 22.817 122.171 22.4829 123.093 19.9483L125.455 13.3005H124.015L122.459 17.909L120.501 13.3005H119.003L121.837 19.6026C121.342 21.1234 120.743 21.6304 119.994 21.6304C119.673 21.6281 119.357 21.5491 119.072 21.3999L118.727 22.552C119.144 22.7336 119.596 22.8239 120.051 22.817Z" fill="#FAFAFA"/>
<path fill-rule="evenodd" clip-rule="evenodd" d="M125.916 18.5197H126.319C127.229 17.3676 127.667 16.0542 128.151 13.3467H131.803V18.5197H132.725V21.8724H131.435V19.6603H127.241V21.8724H125.939L125.916 18.5197ZM130.421 14.4988H129.153C128.982 15.9078 128.527 17.2676 127.817 18.4966H130.421V14.4988Z" fill="#FAFAFA"/>
<path fill-rule="evenodd" clip-rule="evenodd" d="M136.687 19.5681C137.003 19.4336 137.29 19.2378 137.53 18.992L137.818 19.6257H138.97C138.864 19.0367 138.826 18.4376 138.855 17.8399V15.6048C138.855 14.0264 137.968 13.3006 136.413 13.3006C135.579 13.2977 134.76 13.5164 134.039 13.9342L134.512 14.8559C135.019 14.5478 135.6 14.3845 136.194 14.3836C136.943 14.3836 137.461 14.7062 137.461 15.5357V15.8007H136.309C135.755 15.7921 135.205 15.9021 134.696 16.1233C134.369 16.2718 134.093 16.5143 133.905 16.8201C133.716 17.1258 133.622 17.4809 133.636 17.8399C133.636 18.1041 133.689 18.3656 133.794 18.6082C133.898 18.8509 134.051 19.0696 134.243 19.251C134.435 19.4323 134.662 19.5724 134.911 19.6626C135.159 19.7528 135.423 19.7912 135.687 19.7755C136.031 19.773 136.371 19.7026 136.687 19.5681ZM135.479 16.8952C135.797 16.7501 136.144 16.6792 136.493 16.6878H137.438V18.0703C137.072 18.4346 136.583 18.6484 136.067 18.6694C135.934 18.6848 135.798 18.6707 135.671 18.6284C135.544 18.586 135.427 18.5162 135.329 18.4241C135.232 18.3319 135.155 18.2194 135.106 18.0947C135.056 17.9699 135.034 17.8358 135.042 17.7017C135.03 17.5395 135.065 17.3774 135.143 17.2345C135.22 17.0916 135.337 16.9739 135.479 16.8952Z" fill="#FAFAFA"/>
<path fill-rule="evenodd" clip-rule="evenodd" d="M140.445 13.6231C141.185 13.3588 141.964 13.2224 142.75 13.2199C143.197 13.1703 143.651 13.2208 144.077 13.3679C144.503 13.5149 144.891 13.7548 145.213 14.0701C145.535 14.3854 145.782 14.7683 145.938 15.1911C146.094 15.614 146.154 16.0661 146.114 16.515C146.142 16.952 146.077 17.3901 145.925 17.8007C145.772 18.2112 145.535 18.5851 145.229 18.8981C144.922 19.211 144.553 19.4559 144.146 19.617C143.739 19.7781 143.302 19.8517 142.865 19.8331C142.519 19.8318 142.175 19.7694 141.851 19.6487V22.8516H140.468L140.445 13.6231ZM142.75 18.6349C144.005 18.6349 144.662 17.7823 144.662 16.4689C144.695 16.195 144.667 15.9172 144.58 15.6554C144.493 15.3937 144.349 15.1545 144.158 14.9551C143.968 14.7557 143.735 14.601 143.478 14.5021C143.22 14.4033 142.944 14.3628 142.669 14.3835C142.384 14.3798 142.101 14.4187 141.828 14.4987V18.462C142.115 18.6024 142.43 18.6734 142.75 18.6694V18.6349Z" fill="#FAFAFA"/>
<path d="M147.339 15.2754C147.18 15.6806 147.104 16.1139 147.116 16.5491V16.5606C147.084 16.9859 147.141 17.4132 147.285 17.8146C147.43 18.216 147.657 18.5822 147.953 18.8892C148.249 19.1962 148.607 19.4369 149.003 19.5956C149.399 19.7542 149.824 19.8272 150.25 19.8096C150.99 19.8119 151.714 19.5998 152.336 19.199L151.932 18.2427C151.485 18.5171 150.971 18.6644 150.446 18.669C149.294 18.669 148.545 17.8971 148.545 16.5261C148.516 16.249 148.545 15.9688 148.632 15.7039C148.718 15.439 148.86 15.1953 149.047 14.9887C149.234 14.7822 149.462 14.6174 149.717 14.5051C149.972 14.3928 150.248 14.3355 150.527 14.337C151.073 14.3306 151.607 14.4914 152.059 14.7979V13.6458C151.548 13.3635 150.972 13.2205 150.388 13.231C149.953 13.2246 149.521 13.3064 149.118 13.4715C148.715 13.6366 148.35 13.8815 148.044 14.1915C147.738 14.5016 147.499 14.8703 147.339 15.2754Z" fill="#FAFAFA"/>
<path d="M154.8 14.5218H152.842V13.3467H158.487L158.107 14.5218H156.194V19.6603H154.8V14.5218Z" fill="#FAFAFA"/>
<path fill-rule="evenodd" clip-rule="evenodd" d="M161.954 13.3467H159.546L159.488 19.6372H162.011C163.924 19.6372 164.535 18.7156 164.535 17.8399C164.541 17.5014 164.428 17.1715 164.215 16.9081C164.002 16.6447 163.703 16.4647 163.371 16.3998C163.679 16.3327 163.953 16.16 164.147 15.9116C164.34 15.6633 164.441 15.355 164.431 15.0403C164.431 14.2338 163.832 13.3467 161.954 13.3467ZM163.198 17.7939C163.198 18.3584 162.806 18.6464 162.046 18.6464H160.859V16.9413H162.15C162.829 16.9413 163.198 17.2293 163.198 17.7939ZM163.06 15.1785C163.06 15.72 162.714 15.985 162.046 15.985L160.825 16.0081V14.3836H161.908C162.68 14.3836 163.06 14.6371 163.06 15.1785Z" fill="#FAFAFA"/>
<path fill-rule="evenodd" clip-rule="evenodd" d="M166.955 16.8375C166.945 17.0853 166.987 17.3324 167.078 17.5629C167.17 17.7934 167.308 18.0023 167.485 18.176C167.662 18.3496 167.873 18.4843 168.106 18.5713C168.338 18.6583 168.586 18.6956 168.833 18.6809C169.392 18.683 169.941 18.5359 170.423 18.2546L170.838 19.2109C170.192 19.6013 169.45 19.8047 168.695 19.7985C168.26 19.8226 167.825 19.7519 167.42 19.5914C167.015 19.4308 166.65 19.1843 166.35 18.8687C166.05 18.5532 165.822 18.1762 165.681 17.7638C165.541 17.3514 165.492 16.9135 165.538 16.4804C165.538 14.5794 166.598 13.1853 168.303 13.1853C170.008 13.1853 171.011 14.4642 171.011 16.5034V16.8375H166.955ZM169.594 15.8582C169.594 15.0517 169.179 14.2683 168.292 14.2683C168.097 14.2797 167.907 14.3304 167.733 14.4175C167.558 14.5045 167.403 14.626 167.277 14.7747C167.151 14.9233 167.057 15.096 166.999 15.2822C166.942 15.4685 166.923 15.6644 166.944 15.8582H169.594Z" fill="#FAFAFA"/>
<path d="M173.775 13.3467H172.381V19.6603H173.775V16.9067H176.436V19.6603H177.83V13.3467H176.436V15.697H173.775V13.3467Z" fill="#FAFAFA"/>
<path d="M179.49 13.3467H180.884V15.697H183.557V13.3467H184.94V19.6603H183.557V16.9067H180.884V19.6603H179.49V13.3467Z" fill="#FAFAFA"/>
<path d="M193.615 13.3467H192.233V19.6603H193.615V13.3467Z" fill="#FAFAFA"/>
<path fill-rule="evenodd" clip-rule="evenodd" d="M188.027 13.3467H186.61L186.633 19.6833H188.707C190.781 19.6833 191.415 18.704 191.415 17.6441C191.415 16.5841 190.746 15.6509 188.73 15.6509C188.496 15.6341 188.261 15.6341 188.027 15.6509V13.3467ZM189.998 17.6441C189.998 18.1625 189.802 18.5773 188.65 18.5773L188.004 18.5312V16.7224C188.219 16.7056 188.435 16.7056 188.65 16.7224C189.733 16.7224 189.998 17.1256 189.998 17.6441Z" fill="#FAFAFA"/>
<path d="M196.023 10.2935H197.175C197.175 10.8926 197.44 11.4456 198.2 11.4456C198.961 11.4456 199.203 10.9271 199.203 10.2935H200.355C200.355 10.8679 200.126 11.4188 199.72 11.825C199.314 12.2312 198.763 12.4594 198.189 12.4594C197.614 12.4594 197.063 12.2312 196.657 11.825C196.251 11.4188 196.023 10.8679 196.023 10.2935Z" fill="#FAFAFA"/>
<path d="M195.297 13.3466H196.656V17.7477C196.852 17.4135 197.14 16.9757 197.509 16.4342L199.663 13.3466H201V19.6602H199.629V15.2591C199.585 15.3283 199.538 15.405 199.486 15.4883L199.484 15.492C199.303 15.7824 199.073 16.1533 198.788 16.5725L196.633 19.6602H195.297V13.3466Z" fill="#FAFAFA"/>
<path fill-rule="evenodd" clip-rule="evenodd" d="M38.7494 31.5084C39.0638 31.3759 39.3489 31.1824 39.588 30.939L39.8761 31.6764H41.0282C40.9216 31.0875 40.8829 30.4883 40.913 29.8906V27.4596C40.913 25.8697 40.0258 25.1554 38.4705 25.1554C37.6383 25.1496 36.8194 25.3642 36.0971 25.7775L36.5695 26.6992C37.0816 26.4043 37.6607 26.2457 38.2516 26.2384C39.0005 26.2384 39.5189 26.561 39.5189 27.3905V27.667H38.3668C37.8109 27.6565 37.2598 27.7707 36.7538 28.0011C36.4266 28.1463 36.1505 28.3866 35.9615 28.6906C35.7725 28.9947 35.6793 29.3485 35.6939 29.7063C35.6836 29.9772 35.7304 30.2473 35.8311 30.499C35.9319 30.7508 36.0845 30.9785 36.2789 31.1675C36.4733 31.3565 36.7053 31.5026 36.9598 31.5962C37.2143 31.6898 37.4856 31.7289 37.7562 31.7109C38.0974 31.7098 38.435 31.6409 38.7494 31.5084ZM37.5373 28.8537C37.852 28.6984 38.2003 28.6232 38.5511 28.6348L39.4959 28.6002V30.0289C39.13 30.3931 38.6407 30.6069 38.1248 30.628C37.9908 30.6415 37.8554 30.6258 37.728 30.582C37.6006 30.5382 37.4842 30.4674 37.3867 30.3743C37.2893 30.2813 37.2132 30.1682 37.1636 30.043C37.114 29.9177 37.0921 29.7832 37.0995 29.6487C37.0888 29.4882 37.1243 29.328 37.2019 29.1871C37.2795 29.0462 37.3959 28.9305 37.5373 28.8537Z" fill="#FAFAFA"/>
<path d="M42.5254 25.2937H46.961L46.5463 26.5149H43.9195V31.6073H42.5254V25.2937Z" fill="#FAFAFA"/>
<path fill-rule="evenodd" clip-rule="evenodd" d="M50.2798 25.1327C49.4955 25.1363 48.7171 25.2687 47.9756 25.5245L47.9986 34.7644H49.3812V31.5616C49.7077 31.673 50.05 31.7314 50.395 31.7344C50.8316 31.7529 51.2671 31.6796 51.6736 31.5192C52.08 31.3588 52.4482 31.1149 52.7545 30.8032C53.0607 30.4916 53.2981 30.1191 53.4513 29.7099C53.6046 29.3007 53.6702 28.8639 53.644 28.4278C53.6843 27.979 53.6244 27.5268 53.4685 27.104C53.3127 26.6811 53.0648 26.2982 52.7429 25.9829C52.421 25.6676 52.033 25.4277 51.607 25.2807C51.181 25.1337 50.7277 25.0831 50.2798 25.1327ZM52.1923 28.4163C52.1923 29.7182 51.5356 30.5707 50.2798 30.5707C49.9621 30.5728 49.6476 30.5059 49.3581 30.3749V26.4116C49.6308 26.3284 49.9141 26.2858 50.1992 26.2849C50.4787 26.2629 50.7595 26.3041 51.0209 26.4055C51.2822 26.5069 51.5174 26.6659 51.7089 26.8707C51.9004 27.0755 52.0433 27.3208 52.127 27.5883C52.2107 27.8559 52.233 28.1389 52.1923 28.4163Z" fill="#FAFAFA"/>
<path fill-rule="evenodd" clip-rule="evenodd" d="M58.5288 30.9391C58.2879 31.1833 58.001 31.3773 57.6845 31.5098C57.3681 31.6423 57.0285 31.7107 56.6855 31.711C56.4154 31.7291 56.1446 31.69 55.8907 31.5963C55.6367 31.5026 55.4054 31.3563 55.2119 31.1671C55.0184 30.9779 54.8669 30.75 54.7674 30.4983C54.668 30.2466 54.6227 29.9767 54.6347 29.7063C54.6201 29.3486 54.7133 28.9947 54.9023 28.6907C55.0914 28.3866 55.3674 28.1464 55.6946 28.0012C56.2006 27.7707 56.7517 27.6565 57.3076 27.6671H58.4597V27.3905C58.4597 26.561 57.9413 26.2384 57.1924 26.2384C56.6009 26.2415 56.0207 26.4005 55.5103 26.6993L55.0379 25.7776C55.7598 25.3632 56.579 25.1485 57.4113 25.1554C58.9666 25.1554 59.8538 25.8697 59.8538 27.4597V29.8906C59.8238 30.4884 59.8624 31.0875 59.969 31.6764H58.8169L58.5288 30.9391ZM57.4919 28.6348C57.1411 28.6232 56.7929 28.6984 56.4781 28.8537C56.3367 28.9305 56.2203 29.0462 56.1427 29.1871C56.0652 29.328 56.0296 29.4882 56.0403 29.6487C56.0309 29.7837 56.0514 29.9192 56.1003 30.0454C56.1492 30.1716 56.2253 30.2855 56.3232 30.379C56.4211 30.4724 56.5383 30.5432 56.6666 30.5863C56.795 30.6293 56.9312 30.6435 57.0657 30.628C57.5816 30.607 58.0708 30.3932 58.4367 30.0289V28.6003L57.4919 28.6348Z" fill="#FAFAFA"/>
<path fill-rule="evenodd" clip-rule="evenodd" d="M63.749 25.1327C62.9646 25.1363 62.1862 25.2686 61.4447 25.5244L61.4102 34.7644H62.7927V31.5615C63.1192 31.673 63.4615 31.7313 63.8066 31.7344C64.2431 31.7529 64.6787 31.6796 65.0851 31.5192C65.4915 31.3588 65.8598 31.1149 66.166 30.8032C66.4722 30.4915 66.7096 30.1191 66.8629 29.7099C67.0161 29.3007 67.0817 28.8639 67.0555 28.4278C67.0945 27.9843 67.0356 27.5376 66.883 27.1194C66.7305 26.7011 66.4879 26.3215 66.1726 26.0072C65.8572 25.693 65.4767 25.4518 65.0579 25.3007C64.6392 25.1496 64.1923 25.0922 63.749 25.1327ZM65.6615 28.4163C65.6615 29.7182 65.0048 30.5707 63.749 30.5707C63.4312 30.5728 63.1168 30.5059 62.8273 30.3749V26.4116C63.0999 26.3284 63.3833 26.2857 63.6683 26.2848C63.9478 26.2628 64.2287 26.3041 64.49 26.4055C64.7514 26.5069 64.9865 26.6659 65.178 26.8707C65.3695 27.0755 65.5124 27.3207 65.5961 27.5883C65.6798 27.8559 65.7021 28.1389 65.6615 28.4163Z" fill="#FAFAFA"/>
<path d="M68.4492 25.2937H69.8433V27.6325H72.5047V25.2937H73.8987V31.6073H72.5047V28.8537H69.8433V31.6073H68.4492V25.2937Z" fill="#FAFAFA"/>
<path d="M82.5732 25.294H81.1792V31.5961H82.5732V25.294Z" fill="#FAFAFA"/>
<path fill-rule="evenodd" clip-rule="evenodd" d="M76.9509 25.2825H75.5684V31.6076H77.6307C79.716 31.6076 80.3381 30.6168 80.3381 29.5684C80.3381 28.5199 79.6699 27.5867 77.6537 27.5867H76.9509V25.2825ZM78.9556 29.5799C78.9556 30.0983 78.7597 30.5131 77.6076 30.5131H76.9509V28.6582H77.6076C78.6906 28.6582 78.9556 29.0614 78.9556 29.5799Z" fill="#FAFAFA"/>
<path d="M86.1219 22.2295C86.1219 22.8286 86.3754 23.3816 87.1358 23.3816C87.8962 23.3816 88.1381 22.8516 88.1381 22.2295H89.2902C89.2502 22.7781 89.0041 23.2913 88.6012 23.6659C88.1983 24.0405 87.6686 24.2487 87.1185 24.2487C86.5684 24.2487 86.0386 24.0405 85.6358 23.6659C85.2329 23.2913 84.9867 22.7781 84.9467 22.2295H86.1219Z" fill="#FAFAFA"/>
<path d="M84.2324 25.2941H85.5919V29.6952C85.7993 29.3611 86.0758 28.9233 86.456 28.3703L88.5989 25.2941H89.9354V31.5962H88.5644V28.5316C88.5388 28.0865 88.5388 27.6402 88.5644 27.1951C88.38 27.5177 88.092 27.967 87.7233 28.5201L85.5689 31.5962H84.2555L84.2324 25.2941Z" fill="#FAFAFA"/>
<path d="M94.8777 34.7643C95.9837 34.7643 96.9976 34.4302 97.9193 31.8955L100.293 25.2478H98.8525L97.2971 29.9139L95.327 25.2478H93.8408L96.6635 31.5384C96.168 33.0592 95.5689 33.5661 94.8201 33.5661C94.5006 33.5605 94.1862 33.4859 93.8984 33.3472L93.5527 34.4993C93.9705 34.6809 94.4222 34.7712 94.8777 34.7643Z" fill="#FAFAFA"/>
<path d="M101.283 25.2937H102.666V27.6325H105.339V25.2937H106.733V31.6073H105.339V28.8537H102.666V31.6073H101.283V25.2937Z" fill="#FAFAFA"/>
<path d="M109.764 25.2937H108.393L108.347 31.5958H109.683L111.907 28.5196C112.275 27.9666 112.552 27.5173 112.748 27.1947V31.5958H114.107V25.2937H112.771L110.616 28.3699C110.248 28.9229 109.971 29.3607 109.764 29.6948V25.2937Z" fill="#FAFAFA"/>
<path fill-rule="evenodd" clip-rule="evenodd" d="M115.755 25.2937H118.151C120.041 25.2937 120.64 26.1693 120.64 26.9873C120.648 27.3015 120.546 27.6087 120.353 27.8565C120.16 28.1044 119.886 28.2777 119.58 28.3468C119.908 28.4138 120.203 28.5931 120.413 28.8538C120.623 29.1146 120.736 29.4405 120.732 29.7754C120.732 30.6511 120.121 31.5727 118.22 31.5727H115.697L115.755 25.2937ZM118.313 30.5819C119.073 30.5819 119.465 30.3054 119.465 29.7294C119.465 29.1533 119.108 28.8768 118.428 28.8768H117.137V30.5819H118.313ZM118.243 27.932C118.912 27.932 119.257 27.6671 119.257 27.114C119.257 26.561 118.981 26.3076 118.105 26.3076H117.034V27.932H118.243Z" fill="#FAFAFA"/>
<path fill-rule="evenodd" clip-rule="evenodd" d="M123.367 29.5104C123.276 29.2799 123.234 29.0328 123.244 28.785H127.3V28.4509C127.3 26.4117 126.309 25.1328 124.592 25.1328C122.876 25.1328 121.827 26.5154 121.827 28.4279C121.781 28.8595 121.83 29.2959 121.97 29.7069C122.109 30.1179 122.336 30.4936 122.636 30.8081C122.935 31.1226 123.299 31.3683 123.702 31.5283C124.106 31.6882 124.539 31.7586 124.973 31.7345C125.732 31.7466 126.479 31.5428 127.127 31.1469L126.712 30.2021C126.228 30.4803 125.68 30.6273 125.122 30.6284C124.875 30.6431 124.627 30.6058 124.395 30.5188C124.163 30.4318 123.951 30.2972 123.774 30.1235C123.597 29.9498 123.459 29.7409 123.367 29.5104ZM124.569 26.2043C125.468 26.2043 125.883 26.9992 125.883 27.7942H123.221C123.202 27.6007 123.222 27.4054 123.28 27.2198C123.338 27.0343 123.433 26.8622 123.559 26.7139C123.685 26.5657 123.839 26.4441 124.012 26.3566C124.186 26.269 124.375 26.2172 124.569 26.2043Z" fill="#FAFAFA"/>
<path fill-rule="evenodd" clip-rule="evenodd" d="M128.624 25.5244C129.366 25.2708 130.144 25.1385 130.928 25.1327C131.376 25.0828 131.829 25.1332 132.254 25.2803C132.68 25.4274 133.067 25.6674 133.388 25.983C133.709 26.2986 133.956 26.6817 134.11 27.1046C134.265 27.5275 134.323 27.9795 134.281 28.4277C134.309 28.8633 134.245 29.2999 134.093 29.709C133.941 30.1182 133.705 30.4908 133.399 30.8027C133.094 31.1146 132.726 31.3587 132.321 31.5192C131.915 31.6797 131.48 31.753 131.043 31.7343C130.698 31.7313 130.356 31.673 130.03 31.5615V34.7644H128.636L128.624 25.5244ZM130.928 30.5707C132.184 30.5707 132.841 29.7181 132.841 28.4162C132.881 28.1388 132.859 27.8559 132.775 27.5883C132.692 27.3207 132.549 27.0754 132.357 26.8707C132.166 26.6659 131.931 26.5069 131.669 26.4055C131.408 26.304 131.127 26.2628 130.848 26.2848C130.562 26.284 130.279 26.3267 130.007 26.4115V30.3748C130.296 30.507 130.61 30.5738 130.928 30.5707Z" fill="#FAFAFA"/>
<path d="M135.295 28.4535C135.294 27.8832 135.44 27.3221 135.719 26.8244C136.003 26.3174 136.415 25.894 136.915 25.5965C137.414 25.299 137.983 25.1379 138.564 25.1293C139.145 25.1207 139.718 25.2649 140.226 25.5475V26.6996C139.778 26.3848 139.242 26.2195 138.694 26.2272C138.416 26.2273 138.142 26.2857 137.888 26.3987C137.634 26.5118 137.407 26.6768 137.222 26.8832C137.036 27.0896 136.896 27.3327 136.81 27.5968C136.724 27.8609 136.695 28.1401 136.724 28.4162C136.724 29.7873 137.473 30.5592 138.613 30.5592C139.14 30.5529 139.656 30.41 140.111 30.1444L140.514 31.1007C139.892 31.4975 139.167 31.7055 138.429 31.6998C138.002 31.7192 137.576 31.6475 137.18 31.4895C136.783 31.3315 136.424 31.0908 136.128 30.7834C135.831 30.476 135.604 30.109 135.46 29.7068C135.317 29.3054 135.261 28.8783 135.295 28.4535Z" fill="#FAFAFA"/>
<path d="M141.551 25.2937H142.91V29.6948C143.106 29.3607 143.394 28.9229 143.763 28.3699L145.917 25.2937H147.242V31.5958H145.86V28.5312C145.834 28.086 145.834 27.6398 145.86 27.1947C145.675 27.5173 145.399 27.9666 145.018 28.5196L142.876 31.5958H141.539L141.551 25.2937Z" fill="#FAFAFA"/>
<path d="M148.371 26.4573H150.33V31.6073H151.724V26.4573H153.625L154.016 25.2937H148.371V26.4573Z" fill="#FAFAFA"/>
<path fill-rule="evenodd" clip-rule="evenodd" d="M156.114 28.785C156.104 29.0328 156.146 29.2799 156.237 29.5104C156.329 29.7409 156.467 29.9498 156.644 30.1235C156.821 30.2972 157.032 30.4318 157.265 30.5188C157.497 30.6058 157.745 30.6431 157.992 30.6284C158.551 30.6305 159.1 30.4834 159.582 30.2021L159.997 31.1469C159.353 31.5425 158.609 31.7463 157.854 31.7345C157.42 31.7583 156.986 31.6879 156.582 31.528C156.178 31.3682 155.814 31.1227 155.514 30.8084C155.214 30.4942 154.985 30.1186 154.844 29.7077C154.703 29.2967 154.653 28.8601 154.697 28.4279C154.697 26.5154 155.757 25.1328 157.462 25.1328C159.167 25.1328 160.17 26.4117 160.17 28.4509V28.785H156.114ZM158.753 27.7942C158.753 26.9992 158.338 26.2043 157.451 26.2043C157.256 26.2157 157.066 26.2664 156.891 26.3534C156.717 26.4405 156.562 26.562 156.436 26.7106C156.31 26.8593 156.216 27.032 156.158 27.2182C156.101 27.4045 156.082 27.6004 156.103 27.7942H158.753Z" fill="#FAFAFA"/>
<path d="M160.986 26.4573H162.945V31.6073H164.339V26.4573H166.24L166.632 25.2937H160.986V26.4573Z" fill="#FAFAFA"/>
<path d="M20.7169 30.3977C22.0362 28.9214 22.9668 27.1395 23.4244 25.2132H23.5511C23.873 26.9894 23.785 28.8158 23.2938 30.5528C22.8027 32.2899 21.9213 33.8919 20.7169 35.2366L20.2215 35.7435L11.9493 44.0388L3.56186 35.6629C2.21641 34.3101 1.21661 32.6532 0.647062 30.8323C0.0775171 29.0113 -0.0450118 27.08 0.289844 25.2017H0.428099C0.925601 27.3322 2.01141 29.2803 3.56186 30.824C3.6289 30.9027 3.7021 30.9759 3.78076 31.0429L11.9493 39.2114L20.2215 30.9162L20.7169 30.3977Z" fill="#FAFAFA"/>
</svg>
